<svg t="1749806762700" class="icon" viewBox="0 0 1024 1024" version="1.1" xmlns="http://www.w3.org/2000/svg" p-id="813" width="256" height="256"><path d="M160.182857 0h703.634286c88.210286 0.731429 159.451429 71.972571 160.182857 160.182857v703.634286A161.426286 161.426286 0 0 1 863.817143 1024H160.182857A161.426286 161.426286 0 0 1 0 863.817143V160.182857A161.426286 161.426286 0 0 1 160.182857 0z m552.96 326.070857l-56.539428 59.757714a15.872 15.872 0 0 0 0 22.235429l118.857142 103.643429-117.613714 103.570285a15.872 15.872 0 0 0 0 22.235429l56.612572 63.634286c6.144 5.997714 16.091429 5.997714 22.235428 0l186.88-175.542858a14.628571 14.628571 0 0 0 0-22.162285l-188.123428-178.029715a15.286857 15.286857 0 0 0-22.308572 0.731429z m-167.131428-135.314286l-177.371429 610.742858a15.872 15.872 0 0 0 10.825143 19.090285l79.433143 22.893715a14.628571 14.628571 0 0 0 19.090285-10.825143L655.36 222.500571a15.872 15.872 0 0 0-10.825143-19.090285l-79.433143-22.893715a15.286857 15.286857 0 0 0-19.090285 10.24zM291.766857 325.339429L101.668571 500.297143a15.286857 15.286857 0 0 0 0 22.893714L288.548571 699.245714c6.217143 6.070857 16.091429 6.070857 22.308572 0l56.539428-63.561143a15.872 15.872 0 0 0 0-22.235428l-118.857142-101.668572 117.613714-102.985142a15.872 15.872 0 0 0 0-22.235429l-56.612572-63.634286a15.286857 15.286857 0 0 0-22.235428 0l4.388571 2.56z" fill="#000000" p-id="814"></path></svg>